<svg width="336" height="275" viewBox="0 0 336 275" fill="none" xmlns="http://www.w3.org/2000/svg">
    <path d="M41 30H37L34 39L28 21L25 30H21" stroke="black" stroke-width="2" stroke-linecap="round"
        stroke-linejoin="round" />
    <path d="M40 72H22M37 62L31 68M31 68L25 62M31 68V54" stroke="black" stroke-width="2"
        stroke-linecap="round" stroke-linejoin="round" />
    <path
        d="M64 31C64.4294 31.5741 64.9773 32.0492 65.6065 32.3929C66.2357 32.7367 66.9315 32.9411 67.6466 32.9923C68.3618 33.0435 69.0796 32.9404 69.7513 32.6898C70.4231 32.4392 71.0331 32.0471 71.54 31.54L74.54 28.54C75.4508 27.597 75.9547 26.334 75.9434 25.023C75.932 23.712 75.4061 22.4579 74.4791 21.5309C73.552 20.6039 72.298 20.078 70.987 20.0666C69.676 20.0552 68.413 20.5592 67.47 21.47L65.75 23.18M68 29C67.5705 28.4259 67.0226 27.9508 66.3934 27.6071C65.7642 27.2633 65.0685 27.0589 64.3533 27.0077C63.6382 26.9564 62.9204 27.0596 62.2486 27.3102C61.5769 27.5608 60.9669 27.9529 60.46 28.46L57.46 31.46C56.5492 32.403 56.0452 33.666 56.0566 34.977C56.068 36.288 56.5939 37.542 57.5209 38.4691C58.4479 39.3961 59.702 39.922 61.013 39.9334C62.324 39.9448 63.587 39.4408 64.53 38.53L66.24 36.82"
        stroke="black" stroke-width="2" stroke-linecap="round" stroke-linejoin="round" />
    <path
        d="M202 31C202.552 31 203 30.5523 203 30C203 29.4477 202.552 29 202 29C201.448 29 201 29.4477 201 30C201 30.5523 201.448 31 202 31Z"
        stroke="black" stroke-width="2" stroke-linecap="round" stroke-linejoin="round" />
    <path
        d="M209 31C209.552 31 210 30.5523 210 30C210 29.4477 209.552 29 209 29C208.448 29 208 29.4477 208 30C208 30.5523 208.448 31 209 31Z"
        stroke="black" stroke-width="2" stroke-linecap="round" stroke-linejoin="round" />
    <path
        d="M195 31C195.552 31 196 30.5523 196 30C196 29.4477 195.552 29 195 29C194.448 29 194 29.4477 194 30C194 30.5523 194.448 31 195 31Z"
        stroke="black" stroke-width="2" stroke-linecap="round" stroke-linejoin="round" />
    <path
        d="M232 64C232.552 64 233 63.5523 233 63C233 62.4477 232.552 62 232 62C231.448 62 231 62.4477 231 63C231 63.5523 231.448 64 232 64Z"
        stroke="black" stroke-width="2" stroke-linecap="round" stroke-linejoin="round" />
    <path
        d="M232 57C232.552 57 233 56.5523 233 56C233 55.4477 232.552 55 232 55C231.448 55 231 55.4477 231 56C231 56.5523 231.448 57 232 57Z"
        stroke="black" stroke-width="2" stroke-linecap="round" stroke-linejoin="round" />
    <path
        d="M232 71C232.552 71 233 70.5523 233 70C233 69.4477 232.552 69 232 69C231.448 69 231 69.4477 231 70C231 70.5523 231.448 71 232 71Z"
        stroke="black" stroke-width="2" stroke-linecap="round" stroke-linejoin="round" />
    <path
        d="M269 23C269.552 23 270 22.5523 270 22C270 21.4477 269.552 21 269 21C268.448 21 268 21.4477 268 22C268 22.5523 268.448 23 269 23Z"
        stroke="black" stroke-width="2" stroke-linecap="round" stroke-linejoin="round" />
    <path
        d="M269 30C269.552 30 270 29.5523 270 29C270 28.4477 269.552 28 269 28C268.448 28 268 28.4477 268 29C268 29.5523 268.448 30 269 30Z"
        stroke="black" stroke-width="2" stroke-linecap="round" stroke-linejoin="round" />
    <path
        d="M269 37C269.552 37 270 36.5523 270 36C270 35.4477 269.552 35 269 35C268.448 35 268 35.4477 268 36C268 36.5523 268.448 37 269 37Z"
        stroke="black" stroke-width="2" stroke-linecap="round" stroke-linejoin="round" />
    <path
        d="M276 23C276.552 23 277 22.5523 277 22C277 21.4477 276.552 21 276 21C275.448 21 275 21.4477 275 22C275 22.5523 275.448 23 276 23Z"
        stroke="black" stroke-width="2" stroke-linecap="round" stroke-linejoin="round" />
    <path
        d="M276 30C276.552 30 277 29.5523 277 29C277 28.4477 276.552 28 276 28C275.448 28 275 28.4477 275 29C275 29.5523 275.448 30 276 30Z"
        stroke="black" stroke-width="2" stroke-linecap="round" stroke-linejoin="round" />
    <path
        d="M276 37C276.552 37 277 36.5523 277 36C277 35.4477 276.552 35 276 35C275.448 35 275 35.4477 275 36C275 36.5523 275.448 37 276 37Z"
        stroke="black" stroke-width="2" stroke-linecap="round" stroke-linejoin="round" />
    <path
        d="M262 23C262.552 23 263 22.5523 263 22C263 21.4477 262.552 21 262 21C261.448 21 261 21.4477 261 22C261 22.5523 261.448 23 262 23Z"
        stroke="black" stroke-width="2" stroke-linecap="round" stroke-linejoin="round" />
    <path
        d="M262 30C262.552 30 263 29.5523 263 29C263 28.4477 262.552 28 262 28C261.448 28 261 28.4477 261 29C261 29.5523 261.448 30 262 30Z"
        stroke="black" stroke-width="2" stroke-linecap="round" stroke-linejoin="round" />
    <path
        d="M262 37C262.552 37 263 36.5523 263 36C263 35.4477 262.552 35 262 35C261.448 35 261 35.4477 261 36C261 36.5523 261.448 37 262 37Z"
        stroke="black" stroke-width="2" stroke-linecap="round" stroke-linejoin="round" />
    <path
        d="M273 59V56.2C273 55.0799 273 54.5198 272.782 54.092C272.59 53.7157 272.284 53.4097 271.908 53.218C271.48 53 270.92 53 269.8 53H262.2C261.08 53 260.52 53 260.092 53.218C259.716 53.4097 259.41 53.7157 259.218 54.092C259 54.5198 259 55.0799 259 56.2V63.8C259 64.9201 259 65.4802 259.218 65.908C259.41 66.2843 259.716 66.5903 260.092 66.782C260.52 67 261.08 67 262.2 67H265M268.2 73H275.8C276.92 73 277.48 73 277.908 72.782C278.284 72.5903 278.59 72.2843 278.782 71.908C279 71.4802 279 70.9201 279 69.8V62.2C279 61.0799 279 60.5198 278.782 60.092C278.59 59.7157 278.284 59.4097 277.908 59.218C277.48 59 276.92 59 275.8 59H268.2C267.08 59 266.52 59 266.092 59.218C265.716 59.4097 265.41 59.7157 265.218 60.092C265 60.5198 265 61.0799 265 62.2V69.8C265 70.9201 265 71.4802 265.218 71.908C265.41 72.2843 265.716 72.5903 266.092 72.782C266.52 73 267.08 73 268.2 73Z"
        stroke="black" stroke-width="2" stroke-linecap="round" stroke-linejoin="round" />
    <path
        d="M314 39L308 33M310 28C310 31.866 306.866 35 303 35C299.134 35 296 31.866 296 28C296 24.134 299.134 21 303 21C306.866 21 310 24.134 310 28Z"
        stroke="black" stroke-width="2" stroke-linecap="round" stroke-linejoin="round" />
    <path
        d="M110 108L104 102M106 97C106 100.866 102.866 104 99 104C95.134 104 92 100.866 92 97C92 93.134 95.134 90 99 90C102.866 90 106 93.134 106 97Z"
        stroke="white" stroke-width="2" stroke-linecap="round" stroke-linejoin="round" />
    <path d="M202 56V70M195 63H209" stroke="black" stroke-width="2" stroke-linecap="round"
        stroke-linejoin="round" />
    <path d="M66 92V106M59 99H73" stroke="white" stroke-width="2" stroke-linecap="round"
        stroke-linejoin="round" />
    <path
        d="M232 22H227.8C226.12 22 225.28 22 224.638 22.327C224.074 22.6146 223.615 23.0735 223.327 23.638C223 24.2798 223 25.1198 223 26.8V35.2C223 36.8802 223 37.7202 223.327 38.362C223.615 38.9265 224.074 39.3854 224.638 39.673C225.28 40 226.12 40 227.8 40H236.2C237.88 40 238.72 40 239.362 39.673C239.926 39.3854 240.385 38.9265 240.673 38.362C241 37.7202 241 36.8802 241 35.2V31M229 34H230.675C231.164 34 231.408 34 231.638 33.9447C231.843 33.8957 232.038 33.8149 232.217 33.7053C232.418 33.5816 232.591 33.4086 232.937 33.0627L242.5 23.5C243.328 22.6716 243.328 21.3284 242.5 20.5C241.672 19.6716 240.328 19.6716 239.5 20.5L229.937 30.0627C229.591 30.4086 229.418 30.5816 229.295 30.7834C229.185 30.9624 229.104 31.1575 229.055 31.3615C229 31.5917 229 31.8363 229 32.3255V34Z"
        stroke="black" stroke-width="2" stroke-linecap="round" stroke-linejoin="round" />
    <path
        d="M101 33C102.657 33 104 31.6569 104 30C104 28.3431 102.657 27 101 27C99.3431 27 98 28.3431 98 30C98 31.6569 99.3431 33 101 33Z"
        stroke="black" stroke-width="2" stroke-linecap="round" stroke-linejoin="round" />
    <path
        d="M107.727 32.7273C107.606 33.0015 107.57 33.3056 107.624 33.6005C107.677 33.8954 107.818 34.1676 108.027 34.3818L108.082 34.4364C108.251 34.6052 108.385 34.8057 108.476 35.0265C108.568 35.2472 108.615 35.4838 108.615 35.7227C108.615 35.9617 108.568 36.1983 108.476 36.419C108.385 36.6397 108.251 36.8402 108.082 37.0091C107.913 37.1781 107.712 37.3122 107.492 37.4037C107.271 37.4952 107.034 37.5423 106.795 37.5423C106.557 37.5423 106.32 37.4952 106.099 37.4037C105.878 37.3122 105.678 37.1781 105.509 37.0091L105.455 36.9545C105.24 36.745 104.968 36.6044 104.673 36.5509C104.378 36.4974 104.074 36.5335 103.8 36.6545C103.531 36.7698 103.302 36.9611 103.14 37.205C102.979 37.4489 102.892 37.7347 102.891 38.0273V38.1818C102.891 38.664 102.699 39.1265 102.358 39.4675C102.017 39.8084 101.555 40 101.073 40C100.591 40 100.128 39.8084 99.7871 39.4675C99.4461 39.1265 99.2545 38.664 99.2545 38.1818V38.1C99.2475 37.7991 99.1501 37.5073 98.975 37.2625C98.7999 37.0176 98.5552 36.8312 98.2727 36.7273C97.9985 36.6063 97.6944 36.5702 97.3995 36.6236C97.1046 36.6771 96.8324 36.8177 96.6182 37.0273L96.5636 37.0818C96.3948 37.2509 96.1943 37.385 95.9735 37.4765C95.7528 37.568 95.5162 37.6151 95.2773 37.6151C95.0383 37.6151 94.8017 37.568 94.581 37.4765C94.3603 37.385 94.1598 37.2509 93.9909 37.0818C93.8219 36.913 93.6878 36.7124 93.5963 36.4917C93.5048 36.271 93.4577 36.0344 93.4577 35.7955C93.4577 35.5565 93.5048 35.3199 93.5963 35.0992C93.6878 34.8785 93.8219 34.678 93.9909 34.5091L94.0455 34.4545C94.255 34.2403 94.3956 33.9682 94.4491 33.6733C94.5026 33.3784 94.4665 33.0742 94.3455 32.8C94.2302 32.5311 94.0389 32.3018 93.795 32.1403C93.5511 31.9788 93.2653 31.8921 92.9727 31.8909H92.8182C92.336 31.8909 91.8735 31.6994 91.5325 31.3584C91.1916 31.0174 91 30.5549 91 30.0727C91 29.5905 91.1916 29.1281 91.5325 28.7871C91.8735 28.4461 92.336 28.2545 92.8182 28.2545H92.9C93.2009 28.2475 93.4927 28.1501 93.7375 27.975C93.9824 27.7999 94.1688 27.5552 94.2727 27.2727C94.3937 26.9985 94.4298 26.6944 94.3764 26.3995C94.3229 26.1046 94.1823 25.8324 93.9727 25.6182L93.9182 25.5636C93.7491 25.3948 93.615 25.1943 93.5235 24.9735C93.432 24.7528 93.3849 24.5162 93.3849 24.2773C93.3849 24.0383 93.432 23.8017 93.5235 23.581C93.615 23.3603 93.7491 23.1598 93.9182 22.9909C94.087 22.8219 94.2876 22.6878 94.5083 22.5963C94.729 22.5048 94.9656 22.4577 95.2045 22.4577C95.4435 22.4577 95.6801 22.5048 95.9008 22.5963C96.1215 22.6878 96.322 22.8219 96.4909 22.9909L96.5455 23.0455C96.7597 23.255 97.0318 23.3956 97.3267 23.4491C97.6216 23.5026 97.9258 23.4665 98.2 23.3455H98.2727C98.5416 23.2302 98.7709 23.0389 98.9324 22.795C99.094 22.5511 99.1807 22.2653 99.1818 21.9727V21.8182C99.1818 21.336 99.3734 20.8735 99.7144 20.5325C100.055 20.1916 100.518 20 101 20C101.482 20 101.945 20.1916 102.286 20.5325C102.627 20.8735 102.818 21.336 102.818 21.8182V21.9C102.819 22.1925 102.906 22.4783 103.068 22.7222C103.229 22.9661 103.458 23.1575 103.727 23.2727C104.001 23.3937 104.306 23.4298 104.601 23.3764C104.895 23.3229 105.168 23.1823 105.382 22.9727L105.436 22.9182C105.605 22.7491 105.806 22.615 106.026 22.5235C106.247 22.432 106.484 22.3849 106.723 22.3849C106.962 22.3849 107.198 22.432 107.419 22.5235C107.64 22.615 107.84 22.7491 108.009 22.9182C108.178 23.087 108.312 23.2876 108.404 23.5083C108.495 23.729 108.542 23.9656 108.542 24.2045C108.542 24.4435 108.495 24.6801 108.404 24.9008C108.312 25.1215 108.178 25.322 108.009 25.4909L107.955 25.5455C107.745 25.7597 107.604 26.0318 107.551 26.3267C107.497 26.6216 107.534 26.9258 107.655 27.2V27.2727C107.77 27.5416 107.961 27.7709 108.205 27.9324C108.449 28.094 108.735 28.1807 109.027 28.1818H109.182C109.664 28.1818 110.126 28.3734 110.467 28.7144C110.808 29.0553 111 29.5178 111 30C111 30.4822 110.808 30.9447 110.467 31.2856C110.126 31.6266 109.664 31.8182 109.182 31.8182H109.1C108.807 31.8193 108.522 31.906 108.278 32.0676C108.034 32.2291 107.843 32.4584 107.727 32.7273Z"
        stroke="black" stroke-width="2" stroke-linecap="round" stroke-linejoin="round" />
    <path
        d="M165.09 27C165.325 26.3317 165.789 25.7681 166.4 25.4091C167.011 25.0502 167.729 24.9189 168.427 25.0387C169.125 25.1585 169.759 25.5215 170.215 26.0635C170.671 26.6055 170.921 27.2915 170.92 28C170.92 30 167.92 31 167.92 31M168 35H168.01M178 30C178 35.5228 173.523 40 168 40C162.477 40 158 35.5228 158 30C158 24.4772 162.477 20 168 20C173.523 20 178 24.4772 178 30Z"
        stroke="black" stroke-width="2" stroke-linecap="round" stroke-linejoin="round" />
    <path
        d="M131.09 96C131.325 95.3317 131.789 94.7681 132.4 94.4091C133.011 94.0502 133.729 93.9189 134.427 94.0387C135.125 94.1585 135.759 94.5215 136.215 95.0635C136.671 95.6055 136.921 96.2915 136.92 97C136.92 99 133.92 100 133.92 100M134 104H134.01M144 99C144 104.523 139.523 109 134 109C128.477 109 124 104.523 124 99C124 93.4772 128.477 89 134 89C139.523 89 144 93.4772 144 99Z"
        stroke="white" stroke-width="2" stroke-linecap="round" stroke-linejoin="round" />
    <path
        d="M138 57V56.2C138 55.0799 138 54.5198 137.782 54.092C137.59 53.7157 137.284 53.4097 136.908 53.218C136.48 53 135.92 53 134.8 53H133.2C132.08 53 131.52 53 131.092 53.218C130.716 53.4097 130.41 53.7157 130.218 54.092C130 54.5198 130 55.0799 130 56.2V57M132 62.5V67.5M136 62.5V67.5M125 57H143M141 57V68.2C141 69.8802 141 70.7202 140.673 71.362C140.385 71.9265 139.926 72.3854 139.362 72.673C138.72 73 137.88 73 136.2 73H131.8C130.12 73 129.28 73 128.638 72.673C128.074 72.3854 127.615 71.9265 127.327 71.362C127 70.7202 127 69.8802 127 68.2V57"
        stroke="black" stroke-width="2" stroke-linecap="round" stroke-linejoin="round" />
    <path
        d="M170 61C170.932 61 171.398 61 171.765 60.8478C172.255 60.6448 172.645 60.2554 172.848 59.7654C173 59.3978 173 58.9319 173 58C173 57.0681 173 56.6022 172.848 56.2346C172.645 55.7446 172.255 55.3552 171.765 55.1522C171.398 55 170.932 55 170 55L162 55C161.068 55 160.602 55 160.235 55.1522C159.745 55.3552 159.355 55.7446 159.152 56.2346C159 56.6022 159 57.0681 159 58C159 58.9319 159 59.3978 159.152 59.7654C159.355 60.2554 159.745 60.6448 160.235 60.8478C160.602 61 161.068 61 162 61L170 61Z"
        stroke="black" stroke-width="2" stroke-linecap="round" stroke-linejoin="round" />
    <path
        d="M174 71C174.932 71 175.398 71 175.765 70.8478C176.255 70.6448 176.645 70.2554 176.848 69.7654C177 69.3978 177 68.9319 177 68C177 67.0681 177 66.6022 176.848 66.2346C176.645 65.7446 176.255 65.3552 175.765 65.1522C175.398 65 174.932 65 174 65H162C161.068 65 160.602 65 160.235 65.1522C159.745 65.3552 159.355 65.7446 159.152 66.2346C159 66.6022 159 67.0681 159 68C159 68.9319 159 69.3978 159.152 69.7654C159.355 70.2554 159.745 70.6448 160.235 70.8478C160.602 71 161.068 71 162 71L174 71Z"
        stroke="black" stroke-width="2" stroke-linecap="round" stroke-linejoin="round" />
    <path
        d="M136 20.2695V24.4001C136 24.9601 136 25.2401 136.109 25.4541C136.205 25.6422 136.358 25.7952 136.546 25.8911C136.76 26.0001 137.04 26.0001 137.6 26.0001H141.731M136 35H130M138 31H130M142 27.9882V35.2C142 36.8802 142 37.7202 141.673 38.362C141.385 38.9265 140.926 39.3854 140.362 39.673C139.72 40 138.88 40 137.2 40H130.8C129.12 40 128.28 40 127.638 39.673C127.074 39.3854 126.615 38.9265 126.327 38.362C126 37.7202 126 36.8802 126 35.2V24.8C126 23.1198 126 22.2798 126.327 21.638C126.615 21.0735 127.074 20.6146 127.638 20.327C128.28 20 129.12 20 130.8 20H134.012C134.746 20 135.112 20 135.458 20.0829C135.764 20.1564 136.056 20.2776 136.325 20.4421C136.628 20.6276 136.887 20.887 137.406 21.4059L140.594 24.5941C141.113 25.113 141.372 25.3724 141.558 25.6751C141.722 25.9436 141.844 26.2362 141.917 26.5423C142 26.8876 142 27.2545 142 27.9882Z"
        stroke="black" stroke-width="2" stroke-linecap="round" stroke-linejoin="round" />
    <path
        d="M92 60H110M96.8 54H105.2C106.88 54 107.72 54 108.362 54.327C108.926 54.6146 109.385 55.0735 109.673 55.638C110 56.2798 110 57.1198 110 58.8V67.2C110 68.8802 110 69.7202 109.673 70.362C109.385 70.9265 108.926 71.3854 108.362 71.673C107.72 72 106.88 72 105.2 72H96.8C95.1198 72 94.2798 72 93.638 71.673C93.0735 71.3854 92.6146 70.9265 92.327 70.362C92 69.7202 92 68.8802 92 67.2V58.8C92 57.1198 92 56.2798 92.327 55.638C92.6146 55.0735 93.0735 54.6146 93.638 54.327C94.2798 54 95.1198 54 96.8 54Z"
        stroke="black" stroke-width="2" stroke-linecap="round" stroke-linejoin="round" />
    <path
        d="M70 67V57.2C70 56.0799 70 55.5198 69.782 55.092C69.5903 54.7157 69.2843 54.4097 68.908 54.218C68.4802 54 67.9201 54 66.8 54H59.2C58.0799 54 57.5198 54 57.092 54.218C56.7157 54.4097 56.4097 54.7157 56.218 55.092C56 55.5198 56 56.0799 56 57.2V63.8C56 64.9201 56 65.4802 56.218 65.908C56.4097 66.2843 56.7157 66.5903 57.092 66.782C57.5198 67 58.0799 67 59.2 67H70ZM70 67H74.4C74.9601 67 75.2401 67 75.454 66.891C75.6422 66.7951 75.7951 66.6422 75.891 66.454C76 66.2401 76 65.9601 76 65.4V62.6627C76 62.4182 76 62.2959 75.9724 62.1808C75.9479 62.0787 75.9075 61.9812 75.8526 61.8917C75.7908 61.7908 75.7043 61.7043 75.5314 61.5314L73.4686 59.4686C73.2957 59.2957 73.2092 59.2092 73.1083 59.1474C73.0188 59.0925 72.9213 59.0521 72.8192 59.0276C72.7041 59 72.5818 59 72.3373 59H70M63 69.5C63 70.8807 61.8807 72 60.5 72C59.1193 72 58 70.8807 58 69.5C58 68.1193 59.1193 67 60.5 67C61.8807 67 63 68.1193 63 69.5ZM74 69.5C74 70.8807 72.8807 72 71.5 72C70.1193 72 69 70.8807 69 69.5C69 68.1193 70.1193 67 71.5 67C72.8807 67 74 68.1193 74 69.5Z"
        stroke="black" stroke-width="2" stroke-linecap="round" stroke-linejoin="round" />
    <path
        d="M296 60L314 60M302 54L302 72M300.8 54H309.2C310.88 54 311.72 54 312.362 54.327C312.926 54.6146 313.385 55.0735 313.673 55.638C314 56.2798 314 57.1198 314 58.8V67.2C314 68.8802 314 69.7202 313.673 70.362C313.385 70.9265 312.926 71.3854 312.362 71.673C311.72 72 310.88 72 309.2 72H300.8C299.12 72 298.28 72 297.638 71.673C297.074 71.3854 296.615 70.9265 296.327 70.362C296 69.7202 296 68.8802 296 67.2V58.8C296 57.1198 296 56.2798 296.327 55.638C296.615 55.0735 297.074 54.6146 297.638 54.327C298.28 54 299.12 54 300.8 54Z"
        stroke="black" stroke-width="2" stroke-linecap="round" stroke-linejoin="round" />
    <path
        d="M36.5 104H25.5M36.5 100H25.5M22 96H40M26.8 90H35.2C36.8802 90 37.7202 90 38.362 90.327C38.9265 90.6146 39.3854 91.0735 39.673 91.638C40 92.2798 40 93.1198 40 94.8V103.2C40 104.88 40 105.72 39.673 106.362C39.3854 106.926 38.9265 107.385 38.362 107.673C37.7202 108 36.8802 108 35.2 108H26.8C25.1198 108 24.2798 108 23.638 107.673C23.0735 107.385 22.6146 106.926 22.327 106.362C22 105.72 22 104.88 22 103.2V94.8C22 93.1198 22 92.2798 22.327 91.638C22.6146 91.0735 23.0735 90.6146 23.638 90.327C24.2798 90 25.1198 90 26.8 90Z"
        stroke="black" stroke-width="2" stroke-linecap="round" stroke-linejoin="round" />
</svg>
    